<?xml version="1.0" encoding="UTF-8"?>
<!-- Created with Inkscape (http://www.inkscape.org/) -->
<svg width="750" height="500" version="1.1" viewBox="0 0 198.44 132.29" xmlns="http://www.w3.org/2000/svg" xmlns:cc="http://creativecommons.org/ns#" xmlns:rdf="http://www.w3.org/1999/02/22-rdf-syntax-ns#">
 <text transform="scale(.80086 1.2487)" x="64.499825" y="78.310226" fill="#e9c6af" font-family="'Open Sans'" font-size="29.473px" font-style="italic" font-weight="800" stroke-width=".39473" xml:space="preserve"><tspan x="64.499825" y="78.310226" fill="#e9c6af" font-family="'Open Sans'" font-size="29.473px" font-style="italic" font-weight="800" stroke-width=".39473" style="font-variant-caps:normal;font-variant-east-asian:normal;font-variant-ligatures:normal;font-variant-numeric:normal">SW Entregas</tspan></text>
 <text x="91.839386" y="68.927597" fill="#000000" font-family="'Open Sans'" font-size="19.756px" font-style="italic" font-weight="800" stroke-width=".26458" xml:space="preserve"><tspan x="91.839386" y="68.927597" stroke-width=".26458"/></text>
 <path d="m194.52 110.42-148.27-10.722-27.663 10.392z" fill="#ff7f2a" stroke-width=".26458"/>
 <g transform="rotate(-15 25.602 44.102)" fill="#1a1a1a">
  <g transform="rotate(-15 73.565 218.27)">
   <path d="m58.642 60.544-16.332-4.3762s-0.01456-2.4 1.8107-2.388c5.8393 0.03807 10.861-2.825 13.462-5.0484 10.009-8.555-1.4671-33.885 16.562-46.059" fill="#1a1a1a"/>
  </g>
  <path d="m18.239 69.785h16.908s0.63522-2.3144-1.1309-2.7753c-5.6502-1.4745-9.7597-5.5398-11.697-8.3607-7.454-10.854 10.187-32.351-4.0766-48.776"/>
 </g>
 <rect transform="rotate(-15)" x="-10.492" y="75.947" width="33.818" height="6.1371" fill="#1a1a1a"/>
 <g fill="#ff7f2a">
  <g transform="translate(-3.1191 8.1055)">
   <g transform="rotate(-15 -7.2004 75.367)" fill="#ff7f2a">
    <rect x="14.08" y="80.201" width="33.818" height="3.075"/>
    <rect x="13.828" y="80.197" width="2.1356" height="28.372"/>
    <rect x="45.761" y="80.362" width="2.1356" height="28.372"/>
   </g>
  </g>
  <path d="m15.393 84.04 5.6458 12.121-1.6564-13.289z"/>
  <path d="m19.476 83.55 4.3986 7.7368-0.9167-8.9657z"/>
  <path d="m29.375 80.153 6.2202 12.435-0.26319-14.448z"/>
  <path d="m48.154 100.21s-0.41912-1.0615-2.3105-0.65207c-1.8914 0.40944-5.0651-1.175-4.8998-3.5476 0.16535-2.3726 0.17357-3.2339-1.3907-4.0953-1.5643-0.86145-2.0582 2.444-1.09 3.993 0.96815 1.549 2.4245 1.9557 2.4195 3.3663-0.0049 1.4107-0.93928 1.7978-2.3287 2.0996-1.3895 0.30182-2.5505-1.5667-3.4122-0.76882-0.86163 0.79787-0.80243 1.2661-0.86163 1.9734-0.0592 0.70725-4.4775 2.2898-6.3205 0.93508-1.8429-1.3548-4.4271-1.1713-5.4395-0.4193s-1.6409-0.82473-2.2993 1.8272c-0.65846 2.6519-0.79677 3.5225-0.79677 3.5225l1.0608 1.2557 16.501-0.87954z"/>
 </g>
 <metadata>
  <rdf:RDF>
   <cc:Work rdf:about=""/>
  </rdf:RDF>
 </metadata>
</svg>
